# xmcd
#
# Track frame offsets:
#	150
#	17645
#	35087
#	55037
#	76791
#	94533
#	111220
#	132343
#	150891
#	171657
#	192694
#	210208
#	228523
#	240456
#	261979
#
# Disc length: 3698 seconds
#
# Revision: 3
# Processed by: cddbd v1.5.2PL0 Copyright (c) Steve Scherf et al.
# Submitted via: audiograbber 1.83.01
#
DISCID=bf0e700f
DTITLE=Goldie Loc - Loc'd Out
DYEAR=2005
DGENRE=Rap
TTITLE0=Gangstas Keep Bumpin They Head
TTITLE1=New Dice City 
TTITLE2=Hood Treasury 
TTITLE3=Future Before Funeral 
TTITLE4=Railroading 
TTITLE5=Bang To Da Boogie 
TTITLE6=Glitter Ain't Gold 
TTITLE7=Die For You 
TTITLE8=Take You For A Ride 
TTITLE9=You Don't Know Me Like That 
TTITLE10=After Party 
TTITLE11=Kill A Holiday 
TTITLE12=Freak Illusions 
TTITLE13=Keep It Gangsta 
TTITLE14=Bonus track 
EXTD=www.RapMusicGuide.com\n
EXTT0=
EXTT1=
EXTT2=
EXTT3=
EXTT4=
EXTT5=
EXTT6=
EXTT7=
EXTT8=
EXTT9=
EXTT10=
EXTT11=
EXTT12=
EXTT13=
EXTT14=
PLAYORDER=
